<?xml version="1.0" encoding="UTF-8"?>
<!DOCTYPE svg PUBLIC "-//W3C//DTD SVG 1.1//EN" "http://www.w3.org/Graphics/SVG/1.1/DTD/svg11.dtd">
<!-- Creator: CorelDRAW -->
<svg xmlns="http://www.w3.org/2000/svg" xml:space="preserve" width="64px" height="64px" version="1.1" style="shape-rendering:geometricPrecision; text-rendering:geometricPrecision; image-rendering:optimizeQuality; fill-rule:evenodd; clip-rule:evenodd"
viewBox="0 0 64 64"
 xmlns:xlink="http://www.w3.org/1999/xlink"
 xmlns:xodm="http://www.corel.com/coreldraw/odm/2003">
 <defs>
  <style type="text/css">
   <![CDATA[
    .fil0 {fill:url(#id0)}
   ]]>
  </style>
  <linearGradient id="id0" gradientUnits="userSpaceOnUse" x1="4" y1="32" x2="60.002" y2="32">
   <stop offset="0" style="stop-opacity:1; stop-color:#EC7E00"/>
   <stop offset="1" style="stop-opacity:1; stop-color:#FFAD33"/>
  </linearGradient>
 </defs>
 <g id="Camada_x0020_1">
  <metadata id="CorelCorpID_0Corel-Layer"/>
  <path class="fil0" d="M8.92 32.644c-1.393,1.317 -3.173,2.351 -4.819,0.533 -2.031,-2.244 0.561,-4.293 2.005,-5.732 2.689,-2.681 5.379,-5.36 8.069,-8.04l11.996 -11.949c1.761,-1.754 3.184,-2.918 5.827,-2.955 2.526,-0.035 4.193,1.048 5.893,2.772l11.965 12.126c1.321,1.34 2.645,2.677 3.965,4.018 0.647,0.659 1.37,1.238 2.02,1.897 0.672,0.682 1.345,1.363 2.017,2.045 1.406,1.426 4.002,3.466 2.14,5.716 -1.042,1.259 -2.338,1.412 -3.671,0.549 -0.482,-0.312 -0.842,-0.663 -1.188,-1.019 0.027,2.379 0.359,5.308 -0.091,7.196 -0.694,2.906 -5.431,3.003 -5.484,-1.099l0.005 -10.605c0,-0.408 0.067,-1.025 -0.19,-1.369 -0.483,-0.645 -1.606,-1.581 -2.205,-2.188l-8.58 -8.544c-1.42,-1.439 -2.84,-2.873 -4.257,-4.31 -2.151,-2.183 -2.278,-2.147 -4.404,-0.03 -5.016,4.997 -9.931,10.121 -15.064,14.997 -0.787,0.748 -0.414,2.282 -0.414,3.331 0,5.708 0,11.417 0,17.124 0,0.34 -0.009,0.73 -0.012,1.142 1.073,-2.6 3.338,-4.761 5.731,-6.1 5.953,-3.33 17.808,-3.392 23.725,0.041 0.384,0.223 0.768,0.45 1.139,0.696 2.169,1.441 4.012,3.69 4.782,6.226 0.238,-0.652 0.614,-1.219 1.354,-1.569 1.109,-0.523 2.42,-0.346 3.223,0.622 1.081,1.304 0.749,3.336 0.262,4.808 -0.703,2.126 -2.291,4.129 -4.26,5.216 -1.624,0.897 -3.121,1.175 -4.953,1.222 -1.145,0 -2.261,0.088 -3.396,0.088l-20.101 0c-0.339,0 -0.678,-0.018 -1.014,-0.055l0 0.009 -0.614 -0.001c-4.385,-0.012 -8.114,-0.737 -10.32,-4.97 -1.656,-3.176 -1.135,-7.771 -1.135,-11.293 0,-2.089 0.029,-4.18 0.037,-6.27 0.004,-1.306 0.06,-2.858 0.017,-4.276zm13.14 -3.831c0,-0.724 0.123,-1.486 0.268,-2.194 0.49,-2.385 2.041,-4.575 4.031,-5.954 2.353,-1.631 5.045,-2.099 7.834,-1.525 1.467,0.302 3.118,1.145 4.236,2.143 1.177,1.051 2.004,2.059 2.63,3.523 1.484,3.474 1.018,7.583 -1.531,10.437 -0.624,0.699 -1.112,1.179 -1.888,1.718 -3.62,2.511 -8.756,2.339 -12.074,-0.62l-0.034 -0.032 -1.07 -1.075 -0.026 -0.029c-0.616,-0.679 -1.137,-1.546 -1.497,-2.387 -0.54,-1.264 -0.879,-2.626 -0.879,-4.005zm-1.858 25.091c0.039,0 0.078,0 0.116,0l0.617 -0.004 0 0.314c0.329,0.09 0.674,0.128 1.014,0.128l20.101 0c0.693,0 1.582,-0.184 2.091,-0.688 0.251,-0.248 0.479,-0.494 0.633,-0.816 0.999,-2.097 -0.922,-4.546 -2.59,-5.654 -0.284,-0.189 -0.58,-0.36 -0.875,-0.532 -4.324,-2.51 -14.266,-2.435 -18.617,0 -1.582,0.884 -3.74,2.808 -3.74,4.773 0,1.022 0.371,1.949 1.25,2.479zm8.017 -22.206l0.852 0.855c1.529,1.319 3.98,1.313 5.629,0.17 0.403,-0.28 0.659,-0.554 0.983,-0.917 1.213,-1.359 1.329,-3.342 0.632,-4.974 -0.319,-0.745 -0.727,-1.17 -1.323,-1.703 -0.441,-0.395 -1.259,-0.817 -1.839,-0.937 -1.407,-0.289 -2.662,-0.116 -3.855,0.711 -0.896,0.622 -1.695,1.674 -1.917,2.755 -0.075,0.362 -0.163,0.785 -0.163,1.155 0,0.672 0.202,1.365 0.464,1.979 0.135,0.316 0.338,0.67 0.537,0.906z"/>
 </g>
</svg>
